<?xml version="1.0" encoding="UTF-8"?>
<!DOCTYPE svg PUBLIC "-//W3C//DTD SVG 1.1//EN" "http://www.w3.org/Graphics/SVG/1.1/DTD/svg11.dtd">
<!-- Creator: CorelDRAW X7 -->
<svg xmlns="http://www.w3.org/2000/svg" xml:space="preserve" width="6.458mm" height="6.458mm" version="1.1" style="shape-rendering:geometricPrecision; text-rendering:geometricPrecision; image-rendering:optimizeQuality; fill-rule:evenodd; clip-rule:evenodd"
viewBox="0 0 646 646"
 xmlns:xlink="http://www.w3.org/1999/xlink">
 <defs>
  <style type="text/css">
   <![CDATA[
    .fil0 {fill:#F02E65}
    .fil1 {fill:white}
   ]]>
  </style>
 </defs>
 <g id="Layer_x0020_1">
  <metadata id="CorelCorpID_0Corel-Layer"/>
  <g id="_2848696941024">
   <path class="fil0" d="M151 0c-84,0 -151,68 -151,151l0 343c0,84 68,152 151,152l343 0c84,0 152,-68 152,-151l0 -344c0,-83 -68,-151 -151,-151l-344 0z"/>
   <path class="fil1" d="M403 486c-29,0 -57,-8 -81,-21 -18,10 -38,17 -59,20 -42,6 -86,-5 -120,-31 -17,-13 -32,-29 -42,-48 -11,-18 -18,-38 -21,-60 -3,-21 -2,-42 3,-63 6,-21 15,-40 28,-57 13,-17 29,-31 47,-42 19,-11 39,-18 60,-21 21,-3 43,-2 63,4 15,3 28,9 41,16 24,-14 52,-21 81,-21 90,0 163,72 163,162 0,90 -73,162 -163,162zm-108 -283l0 0c-23,-10 -48,-14 -73,-10 -34,5 -66,23 -87,51 -21,28 -30,63 -25,98 4,35 23,66 51,88 28,21 63,30 98,25 35,-5 66,-23 87,-51 22,-28 31,-64 26,-98 -2,-16 -7,-32 -15,-46 -14,-25 -36,-45 -62,-57z"/>
   <path class="fil1" d="M245 268c0,0 -3,10 -5,22 -3,11 -7,29 -10,40 -5,20 -8,33 -8,35 0,0 3,1 7,1l7 0 3 -14c1,-7 5,-23 8,-36 3,-13 7,-29 8,-35 2,-6 3,-12 4,-13 0,-1 -2,-1 -7,-1 -3,0 -7,0 -7,1zm-51 41l-9 10 3 3c1,1 5,6 8,9l6 7 18 0 -8 -9c-5,-5 -9,-9 -9,-10 0,-1 4,-5 8,-10 4,-4 8,-8 8,-9 0,0 -4,0 -8,0l-8 0 -9 9zm67 -9c0,0 1,2 3,4 8,8 13,14 13,15 0,1 -4,5 -8,10l-8 9 8 0 9 0 8 -9c5,-5 9,-10 9,-10 0,-1 -4,-5 -9,-10l-9 -9 -8 0c-5,0 -8,0 -8,0z"/>
  </g>
 </g>
</svg>
