<?xml version="1.0" encoding="UTF-8"?>
<!DOCTYPE svg PUBLIC "-//W3C//DTD SVG 1.1//EN" "http://www.w3.org/Graphics/SVG/1.1/DTD/svg11.dtd">
<!-- Creator: CorelDRAW X7 -->
<svg xmlns="http://www.w3.org/2000/svg" xml:space="preserve" width="5.953mm" height="5.991mm" version="1.1" style="shape-rendering:geometricPrecision; text-rendering:geometricPrecision; image-rendering:optimizeQuality; fill-rule:evenodd; clip-rule:evenodd"
viewBox="0 0 595 599"
 xmlns:xlink="http://www.w3.org/1999/xlink">
 <defs>
  <style type="text/css">
   <![CDATA[
    .fil0 {fill:url(#id0)}
    .fil1 {fill:url(#id1)}
   ]]>
  </style>
  <linearGradient id="id0" gradientUnits="userSpaceOnUse" x1="131.09" y1="106.22" x2="464.21" y2="558.75">
   <stop offset="0" style="stop-opacity:1; stop-color:#41D1FF"/>
   <stop offset="0.0392157" style="stop-opacity:1; stop-color:#41D1FF"/>
   <stop offset="1" style="stop-opacity:1; stop-color:#BD34FE"/>
  </linearGradient>
  <linearGradient id="id1" gradientUnits="userSpaceOnUse" x1="309.86" y1="18.14" x2="373.89" y2="482.03">
   <stop offset="0" style="stop-opacity:1; stop-color:#FFEA83"/>
   <stop offset="0.0392157" style="stop-opacity:1; stop-color:#FFEA83"/>
   <stop offset="0.0784314" style="stop-opacity:1; stop-color:#FFDD35"/>
   <stop offset="1" style="stop-opacity:1; stop-color:#FFA800"/>
  </linearGradient>
 </defs>
 <g id="Layer_x0020_1">
  <metadata id="CorelCorpID_0Corel-Layer"/>
  <g id="_2848690980144">
   <path class="fil0" d="M593 89l-279 502c-6,11 -21,11 -27,0l-285 -502c-6,-12 3,-25 16,-23l280 50c2,1 3,1 5,0l274 -50c13,-2 23,11 16,23z"/>
   <path class="fil1" d="M431 0l-207 41c-1,0 -3,1 -4,2 -1,2 -2,3 -2,5l-13 216c0,1 1,2 1,4 0,1 1,2 2,2 1,1 2,2 3,2 1,0 3,0 4,0l57 -13c6,-2 11,3 9,9l-17 84c-1,5 4,10 10,9l36 -11c5,-2 10,3 9,9l-27 132c-2,8 9,13 14,6l3 -5 169 -338c2,-6 -3,-12 -9,-11l-59 11c-6,1 -10,-4 -9,-9l39 -135c2,-6 -3,-11 -9,-10l0 0z"/>
  </g>
 </g>
</svg>
