<?xml version="1.0" encoding="UTF-8"?>
<!DOCTYPE svg PUBLIC "-//W3C//DTD SVG 1.1//EN" "http://www.w3.org/Graphics/SVG/1.1/DTD/svg11.dtd">
<!-- Creator: CorelDRAW X7 -->
<svg xmlns="http://www.w3.org/2000/svg" xml:space="preserve" width="4.7618mm" height="4.763mm" version="1.1" style="shape-rendering:geometricPrecision; text-rendering:geometricPrecision; image-rendering:optimizeQuality; fill-rule:evenodd; clip-rule:evenodd"
viewBox="0 0 476 476"
 xmlns:xlink="http://www.w3.org/1999/xlink">
 <defs>
  <style type="text/css">
   <![CDATA[
    .fil0 {fill:white}
   ]]>
  </style>
 </defs>
 <g id="Layer_x0020_1">
  <metadata id="CorelCorpID_0Corel-Layer"/>
  <g id="whatsapp-svgrepo-com.svg">
   <g id="XMLID_468_">
    <path id="XMLID_469_" class="fil0" d="M352 274c-1,-1 -35,-18 -41,-20 -3,-1 -6,-2 -9,-2 -4,0 -8,2 -11,7 -4,5 -14,17 -17,21 -1,1 -1,1 -2,1 0,0 -5,-2 -7,-3 -37,-16 -66,-55 -69,-61 -1,-1 -1,-2 -1,-2 0,0 1,-1 2,-2 2,-2 4,-4 6,-7 1,-1 2,-2 3,-3 3,-4 4,-6 5,-9l1 -2c4,-7 1,-13 0,-15 -1,-2 -16,-37 -17,-41 -4,-9 -9,-13 -16,-13 -1,0 0,0 -3,0 -3,0 -21,3 -29,8 -8,5 -22,22 -22,51 0,27 17,52 24,61 0,0 1,1 1,2 28,40 62,70 97,84 34,13 50,15 59,15 0,0 0,0 0,0 3,0 7,-1 9,-1l2 0c12,-1 37,-14 43,-30 4,-13 6,-27 3,-32 -3,-3 -6,-5 -11,-7z"/>
    <path id="XMLID_470_" class="fil0" d="M242 0c-129,0 -234,104 -234,232 0,42 12,82 32,118l-40 118c0,2 0,5 2,6 1,2 3,2 4,2 1,0 1,0 2,0l124 -39c33,18 72,27 110,27 129,0 234,-104 234,-232 0,-128 -105,-232 -234,-232zm0 416c-36,0 -71,-11 -102,-30 -1,-1 -2,-1 -3,-1 -1,0 -1,0 -2,0l-62 20 20 -59c1,-2 1,-4 -1,-6 -23,-32 -35,-69 -35,-108 0,-101 83,-184 185,-184 102,0 186,83 186,184 0,102 -84,184 -186,184z"/>
   </g>
  </g>
 </g>
</svg>
